<mxfile host="www.draw.io" modified="2019-11-08T08:15:00.170Z" agent="Mozilla/5.0 (Windows NT 10.0; Win64; x64) AppleWebKit/537.36 (KHTML, like Gecko) Chrome/78.0.3904.87 Safari/537.36" etag="VFBkcoOBShRQUl86o3lG" version="12.2.2" type="github" pages="1">
  <diagram id="dFV6c7_03_GZPrATwF19" name="Page-1">
    <mxGraphModel dx="2052" dy="1118" grid="1" gridSize="10" guides="1" tooltips="1" connect="1" arrows="1" fold="1" page="1" pageScale="1" pageWidth="1169" pageHeight="1654" math="0" shadow="0">
      <root>
        <mxCell id="0"/>
        <mxCell id="1" parent="0"/>
        <mxCell id="G0jVgzEL40vaOQWalnAc-1" value="PC" style="swimlane;whiteSpace=wrap;fontFamily=Verdana;" vertex="1" parent="1">
          <mxGeometry x="160" y="120" width="280" height="960" as="geometry"/>
        </mxCell>
        <mxCell id="G0jVgzEL40vaOQWalnAc-2" value="" style="ellipse;shape=startState;fillColor=#000000;strokeColor=#ff0000;fontFamily=Verdana;" vertex="1" parent="G0jVgzEL40vaOQWalnAc-1">
          <mxGeometry x="100" y="40" width="30" height="30" as="geometry"/>
        </mxCell>
        <mxCell id="G0jVgzEL40vaOQWalnAc-3" value="" style="edgeStyle=elbowEdgeStyle;elbow=horizontal;verticalAlign=bottom;endArrow=open;endSize=8;strokeColor=#FF0000;endFill=1;rounded=0;fontFamily=Verdana;" edge="1" parent="G0jVgzEL40vaOQWalnAc-1" source="G0jVgzEL40vaOQWalnAc-2" target="G0jVgzEL40vaOQWalnAc-4">
          <mxGeometry x="100" y="40" as="geometry">
            <mxPoint x="115" y="110" as="targetPoint"/>
          </mxGeometry>
        </mxCell>
        <mxCell id="G0jVgzEL40vaOQWalnAc-4" value="App send START command" style="fontFamily=Verdana;" vertex="1" parent="G0jVgzEL40vaOQWalnAc-1">
          <mxGeometry x="40" y="110" width="160" height="50" as="geometry"/>
        </mxCell>
        <mxCell id="G0jVgzEL40vaOQWalnAc-5" value="&lt;font style=&quot;font-size: 13px&quot;&gt;&lt;b&gt;START&lt;/b&gt;&lt;/font&gt;" style="text;html=1;resizable=0;points=[];autosize=1;align=left;verticalAlign=top;spacingTop=-4;fontFamily=Verdana;" vertex="1" parent="G0jVgzEL40vaOQWalnAc-1">
          <mxGeometry x="140" y="45" width="60" height="20" as="geometry"/>
        </mxCell>
        <mxCell id="G0jVgzEL40vaOQWalnAc-6" value="Get Results" style="fontFamily=Verdana;" vertex="1" parent="G0jVgzEL40vaOQWalnAc-1">
          <mxGeometry x="60" y="230" width="110" height="50" as="geometry"/>
        </mxCell>
        <mxCell id="G0jVgzEL40vaOQWalnAc-7" value="" style="endArrow=classic;html=1;entryX=1.006;entryY=0.597;entryDx=0;entryDy=0;entryPerimeter=0;fontFamily=Verdana;" edge="1" parent="G0jVgzEL40vaOQWalnAc-1" target="G0jVgzEL40vaOQWalnAc-6">
          <mxGeometry width="50" height="50" relative="1" as="geometry">
            <mxPoint x="400" y="260" as="sourcePoint"/>
            <mxPoint x="210" y="280" as="targetPoint"/>
          </mxGeometry>
        </mxCell>
        <mxCell id="G0jVgzEL40vaOQWalnAc-8" value="Get Results" style="fontFamily=Verdana;" vertex="1" parent="G0jVgzEL40vaOQWalnAc-1">
          <mxGeometry x="60" y="520" width="110" height="50" as="geometry"/>
        </mxCell>
        <mxCell id="G0jVgzEL40vaOQWalnAc-9" value="" style="endArrow=classic;html=1;entryX=1.006;entryY=0.597;entryDx=0;entryDy=0;entryPerimeter=0;fontFamily=Verdana;" edge="1" parent="G0jVgzEL40vaOQWalnAc-1" target="G0jVgzEL40vaOQWalnAc-8">
          <mxGeometry width="50" height="50" relative="1" as="geometry">
            <mxPoint x="400" y="550" as="sourcePoint"/>
            <mxPoint x="50" y="450" as="targetPoint"/>
          </mxGeometry>
        </mxCell>
        <mxCell id="G0jVgzEL40vaOQWalnAc-12" value="DISPLAY Results" style="fontFamily=Verdana;" vertex="1" parent="G0jVgzEL40vaOQWalnAc-1">
          <mxGeometry x="60" y="760" width="110" height="50" as="geometry"/>
        </mxCell>
        <mxCell id="G0jVgzEL40vaOQWalnAc-13" value="" style="edgeStyle=elbowEdgeStyle;elbow=horizontal;verticalAlign=bottom;endArrow=open;endSize=8;strokeColor=#FF0000;endFill=1;rounded=0;fontFamily=Verdana;" edge="1" parent="G0jVgzEL40vaOQWalnAc-1">
          <mxGeometry x="-4024.5" y="-530" as="geometry">
            <mxPoint x="110" y="760" as="targetPoint"/>
            <mxPoint x="110.5" y="710" as="sourcePoint"/>
          </mxGeometry>
        </mxCell>
        <mxCell id="G0jVgzEL40vaOQWalnAc-14" value="" style="edgeStyle=elbowEdgeStyle;elbow=horizontal;verticalAlign=bottom;endArrow=open;endSize=8;strokeColor=#FF0000;endFill=1;rounded=0;fontFamily=Verdana;" edge="1" parent="G0jVgzEL40vaOQWalnAc-1">
          <mxGeometry x="-4184.5" y="-550" as="geometry">
            <mxPoint x="110" y="860" as="targetPoint"/>
            <mxPoint x="110.50000000000011" y="810" as="sourcePoint"/>
          </mxGeometry>
        </mxCell>
        <mxCell id="G0jVgzEL40vaOQWalnAc-15" value="" style="ellipse;shape=endState;fillColor=#000000;strokeColor=#ff0000;fontFamily=Verdana;" vertex="1" parent="G0jVgzEL40vaOQWalnAc-1">
          <mxGeometry x="90" y="860" width="40" height="40" as="geometry"/>
        </mxCell>
        <mxCell id="G0jVgzEL40vaOQWalnAc-16" value="&lt;font style=&quot;font-size: 13px&quot;&gt;&lt;b&gt;DONE&lt;/b&gt;&lt;/font&gt;" style="text;html=1;resizable=0;points=[];autosize=1;align=left;verticalAlign=top;spacingTop=-4;fontFamily=Verdana;" vertex="1" parent="G0jVgzEL40vaOQWalnAc-1">
          <mxGeometry x="150" y="870" width="60" height="20" as="geometry"/>
        </mxCell>
        <mxCell id="G0jVgzEL40vaOQWalnAc-70" value="Get Results" style="fontFamily=Verdana;" vertex="1" parent="G0jVgzEL40vaOQWalnAc-1">
          <mxGeometry x="60" y="320" width="110" height="50" as="geometry"/>
        </mxCell>
        <mxCell id="G0jVgzEL40vaOQWalnAc-71" value="" style="endArrow=classic;html=1;entryX=1.006;entryY=0.597;entryDx=0;entryDy=0;entryPerimeter=0;fontFamily=Verdana;" edge="1" parent="G0jVgzEL40vaOQWalnAc-1" target="G0jVgzEL40vaOQWalnAc-70">
          <mxGeometry width="50" height="50" relative="1" as="geometry">
            <mxPoint x="400" y="350" as="sourcePoint"/>
            <mxPoint x="50" y="250" as="targetPoint"/>
          </mxGeometry>
        </mxCell>
        <mxCell id="G0jVgzEL40vaOQWalnAc-76" value="" style="edgeStyle=elbowEdgeStyle;elbow=horizontal;verticalAlign=bottom;endArrow=open;endSize=8;strokeColor=#FF0000;endFill=1;rounded=0;fontFamily=Verdana;entryX=0.57;entryY=0;entryDx=0;entryDy=0;entryPerimeter=0;" edge="1" parent="G0jVgzEL40vaOQWalnAc-1" target="G0jVgzEL40vaOQWalnAc-35">
          <mxGeometry x="-655" y="-70" as="geometry">
            <mxPoint x="399.75862068965534" y="360" as="targetPoint"/>
            <mxPoint x="400" y="330" as="sourcePoint"/>
          </mxGeometry>
        </mxCell>
        <mxCell id="G0jVgzEL40vaOQWalnAc-80" value="Get Results" style="fontFamily=Verdana;" vertex="1" parent="G0jVgzEL40vaOQWalnAc-1">
          <mxGeometry x="60" y="440" width="110" height="50" as="geometry"/>
        </mxCell>
        <mxCell id="G0jVgzEL40vaOQWalnAc-81" value="" style="endArrow=classic;html=1;entryX=1.006;entryY=0.597;entryDx=0;entryDy=0;entryPerimeter=0;fontFamily=Verdana;" edge="1" parent="G0jVgzEL40vaOQWalnAc-1" target="G0jVgzEL40vaOQWalnAc-80">
          <mxGeometry width="50" height="50" relative="1" as="geometry">
            <mxPoint x="400" y="470" as="sourcePoint"/>
            <mxPoint x="-110" y="250" as="targetPoint"/>
          </mxGeometry>
        </mxCell>
        <mxCell id="G0jVgzEL40vaOQWalnAc-85" value="Get Results" style="fontFamily=Verdana;" vertex="1" parent="G0jVgzEL40vaOQWalnAc-1">
          <mxGeometry x="60" y="600" width="110" height="50" as="geometry"/>
        </mxCell>
        <mxCell id="G0jVgzEL40vaOQWalnAc-86" value="" style="endArrow=classic;html=1;entryX=1.006;entryY=0.597;entryDx=0;entryDy=0;entryPerimeter=0;fontFamily=Verdana;" edge="1" parent="G0jVgzEL40vaOQWalnAc-1">
          <mxGeometry width="50" height="50" relative="1" as="geometry">
            <mxPoint x="399.5" y="630" as="sourcePoint"/>
            <mxPoint x="170.16000000000008" y="629.8500000000001" as="targetPoint"/>
          </mxGeometry>
        </mxCell>
        <mxCell id="G0jVgzEL40vaOQWalnAc-88" value="Get Results" style="fontFamily=Verdana;" vertex="1" parent="G0jVgzEL40vaOQWalnAc-1">
          <mxGeometry x="59" y="660" width="110" height="50" as="geometry"/>
        </mxCell>
        <mxCell id="G0jVgzEL40vaOQWalnAc-89" value="" style="endArrow=classic;html=1;entryX=1.006;entryY=0.597;entryDx=0;entryDy=0;entryPerimeter=0;fontFamily=Verdana;" edge="1" parent="G0jVgzEL40vaOQWalnAc-1">
          <mxGeometry width="50" height="50" relative="1" as="geometry">
            <mxPoint x="398.5" y="690" as="sourcePoint"/>
            <mxPoint x="169.16000000000008" y="689.8500000000001" as="targetPoint"/>
          </mxGeometry>
        </mxCell>
        <mxCell id="G0jVgzEL40vaOQWalnAc-17" value="TEST TOOL" style="swimlane;whiteSpace=wrap;startSize=23;fontFamily=Verdana;" vertex="1" parent="1">
          <mxGeometry x="440" y="120" width="280" height="960" as="geometry"/>
        </mxCell>
        <mxCell id="G0jVgzEL40vaOQWalnAc-18" value="Turn on 4V for Test" style="fontFamily=Verdana;" vertex="1" parent="G0jVgzEL40vaOQWalnAc-17">
          <mxGeometry x="20" y="150" width="220" height="40" as="geometry"/>
        </mxCell>
        <mxCell id="G0jVgzEL40vaOQWalnAc-19" value="(1)Â Check 3.3VDC" style="fontFamily=Verdana;" vertex="1" parent="G0jVgzEL40vaOQWalnAc-17">
          <mxGeometry x="40" y="220" width="140" height="30" as="geometry"/>
        </mxCell>
        <mxCell id="G0jVgzEL40vaOQWalnAc-21" value="ADC" style="endArrow=open;strokeColor=#FF0000;endFill=1;rounded=0;fontFamily=Verdana;exitX=-0.01;exitY=0.23;exitDx=0;exitDy=0;exitPerimeter=0;" edge="1" parent="G0jVgzEL40vaOQWalnAc-17" source="G0jVgzEL40vaOQWalnAc-67">
          <mxGeometry relative="1" as="geometry">
            <mxPoint x="310" y="240.00000000000006" as="sourcePoint"/>
            <mxPoint x="180" y="240.00000000000006" as="targetPoint"/>
          </mxGeometry>
        </mxCell>
        <mxCell id="G0jVgzEL40vaOQWalnAc-23" value="" style="edgeStyle=elbowEdgeStyle;elbow=horizontal;verticalAlign=bottom;endArrow=open;endSize=8;strokeColor=#FF0000;endFill=1;rounded=0;fontFamily=Verdana;" edge="1" parent="G0jVgzEL40vaOQWalnAc-17">
          <mxGeometry x="-55" y="30" as="geometry">
            <mxPoint x="119.75862068965523" y="220" as="targetPoint"/>
            <mxPoint x="120" y="190" as="sourcePoint"/>
          </mxGeometry>
        </mxCell>
        <mxCell id="G0jVgzEL40vaOQWalnAc-24" value="" style="edgeStyle=elbowEdgeStyle;elbow=horizontal;verticalAlign=bottom;endArrow=open;endSize=8;strokeColor=#FF0000;endFill=1;rounded=0;fontFamily=Verdana;" edge="1" parent="G0jVgzEL40vaOQWalnAc-17">
          <mxGeometry x="-495" y="-90" as="geometry">
            <mxPoint x="119.75862068965523" y="220" as="targetPoint"/>
            <mxPoint x="120" y="190" as="sourcePoint"/>
          </mxGeometry>
        </mxCell>
        <mxCell id="G0jVgzEL40vaOQWalnAc-25" value="" style="edgeStyle=elbowEdgeStyle;elbow=horizontal;verticalAlign=bottom;endArrow=open;endSize=8;strokeColor=#FF0000;endFill=1;rounded=0;fontFamily=Verdana;" edge="1" parent="G0jVgzEL40vaOQWalnAc-17">
          <mxGeometry x="-495" y="-30" as="geometry">
            <mxPoint x="119.75862068965523" y="280" as="targetPoint"/>
            <mxPoint x="120" y="250" as="sourcePoint"/>
          </mxGeometry>
        </mxCell>
        <mxCell id="G0jVgzEL40vaOQWalnAc-28" value="Flash MCU" style="fontFamily=Verdana;" vertex="1" parent="G0jVgzEL40vaOQWalnAc-17">
          <mxGeometry x="20" y="280" width="220" height="50" as="geometry"/>
        </mxCell>
        <mxCell id="G0jVgzEL40vaOQWalnAc-29" value="Flashing Zigbee" style="fontFamily=Verdana;" vertex="1" parent="G0jVgzEL40vaOQWalnAc-17">
          <mxGeometry x="20" y="570" width="220" height="50" as="geometry"/>
        </mxCell>
        <mxCell id="G0jVgzEL40vaOQWalnAc-32" value="Wait START cmd&lt;br&gt;or&lt;br&gt;BUTTON press" style="rhombus;whiteSpace=wrap;html=1;fontFamily=Verdana;" vertex="1" parent="G0jVgzEL40vaOQWalnAc-17">
          <mxGeometry x="60" y="40" width="120" height="80" as="geometry"/>
        </mxCell>
        <mxCell id="G0jVgzEL40vaOQWalnAc-33" value="" style="edgeStyle=elbowEdgeStyle;elbow=horizontal;verticalAlign=bottom;endArrow=open;endSize=8;strokeColor=#FF0000;endFill=1;rounded=0;fontFamily=Verdana;" edge="1" parent="G0jVgzEL40vaOQWalnAc-17">
          <mxGeometry x="-495" y="-160" as="geometry">
            <mxPoint x="119.75862068965534" y="150" as="targetPoint"/>
            <mxPoint x="120" y="120" as="sourcePoint"/>
          </mxGeometry>
        </mxCell>
        <mxCell id="G0jVgzEL40vaOQWalnAc-34" value="YES" style="text;html=1;resizable=0;points=[];autosize=1;align=left;verticalAlign=top;spacingTop=-4;fontFamily=Verdana;" vertex="1" parent="G0jVgzEL40vaOQWalnAc-17">
          <mxGeometry x="124.5" y="120" width="40" height="20" as="geometry"/>
        </mxCell>
        <mxCell id="G0jVgzEL40vaOQWalnAc-35" value="Test Relay" style="fontFamily=Verdana;" vertex="1" parent="G0jVgzEL40vaOQWalnAc-17">
          <mxGeometry x="40" y="370" width="140" height="30" as="geometry"/>
        </mxCell>
        <mxCell id="G0jVgzEL40vaOQWalnAc-36" value="Check Relay resp" style="fontFamily=Verdana;" vertex="1" parent="G0jVgzEL40vaOQWalnAc-17">
          <mxGeometry x="40" y="430" width="140" height="30" as="geometry"/>
        </mxCell>
        <mxCell id="G0jVgzEL40vaOQWalnAc-37" value="GPIO" style="endArrow=open;strokeColor=#FF0000;endFill=1;rounded=0;fontFamily=Verdana;exitX=-0.019;exitY=0.386;exitDx=0;exitDy=0;exitPerimeter=0;" edge="1" parent="G0jVgzEL40vaOQWalnAc-17">
          <mxGeometry relative="1" as="geometry">
            <mxPoint x="180" y="385" as="sourcePoint"/>
            <mxPoint x="327.72" y="385.30000000000007" as="targetPoint"/>
          </mxGeometry>
        </mxCell>
        <mxCell id="G0jVgzEL40vaOQWalnAc-39" value="" style="edgeStyle=elbowEdgeStyle;elbow=horizontal;verticalAlign=bottom;endArrow=open;endSize=8;strokeColor=#FF0000;endFill=1;rounded=0;fontFamily=Verdana;" edge="1" parent="G0jVgzEL40vaOQWalnAc-17">
          <mxGeometry x="-935" as="geometry">
            <mxPoint x="119.75862068965534" y="430" as="targetPoint"/>
            <mxPoint x="120" y="400" as="sourcePoint"/>
          </mxGeometry>
        </mxCell>
        <mxCell id="G0jVgzEL40vaOQWalnAc-41" value="Check RF range" style="fontFamily=Verdana;" vertex="1" parent="G0jVgzEL40vaOQWalnAc-17">
          <mxGeometry x="40" y="650" width="140" height="30" as="geometry"/>
        </mxCell>
        <mxCell id="G0jVgzEL40vaOQWalnAc-45" value="GPIO" style="endArrow=open;strokeColor=#FF0000;endFill=1;rounded=0;fontFamily=Verdana;exitX=-0.012;exitY=0.578;exitDx=0;exitDy=0;exitPerimeter=0;" edge="1" parent="G0jVgzEL40vaOQWalnAc-17">
          <mxGeometry relative="1" as="geometry">
            <mxPoint x="180" y="667" as="sourcePoint"/>
            <mxPoint x="329" y="667" as="targetPoint"/>
            <Array as="points">
              <mxPoint x="250" y="667"/>
            </Array>
          </mxGeometry>
        </mxCell>
        <mxCell id="G0jVgzEL40vaOQWalnAc-55" value="" style="edgeStyle=elbowEdgeStyle;elbow=horizontal;verticalAlign=bottom;endArrow=open;endSize=8;strokeColor=#FF0000;endFill=1;rounded=0;fontFamily=Verdana;" edge="1" parent="G0jVgzEL40vaOQWalnAc-17">
          <mxGeometry x="-1855" y="220" as="geometry">
            <mxPoint x="119.75862068965534" y="650" as="targetPoint"/>
            <mxPoint x="120" y="620" as="sourcePoint"/>
          </mxGeometry>
        </mxCell>
        <mxCell id="G0jVgzEL40vaOQWalnAc-62" value="" style="edgeStyle=elbowEdgeStyle;elbow=horizontal;verticalAlign=bottom;endArrow=open;endSize=8;strokeColor=#FF0000;endFill=1;rounded=0;fontFamily=Verdana;" edge="1" parent="G0jVgzEL40vaOQWalnAc-17">
          <mxGeometry x="-3614" y="-200" as="geometry">
            <mxPoint x="121" y="730" as="targetPoint"/>
            <mxPoint x="121" y="680" as="sourcePoint"/>
          </mxGeometry>
        </mxCell>
        <mxCell id="G0jVgzEL40vaOQWalnAc-63" value="" style="pointerEvents=1;verticalLabelPosition=bottom;shadow=0;dashed=0;align=center;html=1;verticalAlign=top;shape=mxgraph.electrical.electro-mechanical.push_switch_no;fontFamily=Verdana;" vertex="1" parent="G0jVgzEL40vaOQWalnAc-17">
          <mxGeometry x="200" y="50" width="75" height="19" as="geometry"/>
        </mxCell>
        <mxCell id="G0jVgzEL40vaOQWalnAc-64" value="" style="ellipse;shape=endState;fillColor=#000000;strokeColor=#ff0000;fontFamily=Verdana;" vertex="1" parent="G0jVgzEL40vaOQWalnAc-17">
          <mxGeometry x="101" y="730" width="40" height="40" as="geometry"/>
        </mxCell>
        <mxCell id="G0jVgzEL40vaOQWalnAc-65" value="&lt;font style=&quot;font-size: 13px&quot;&gt;&lt;b&gt;FINISH&lt;/b&gt;&lt;/font&gt;" style="text;html=1;resizable=0;points=[];autosize=1;align=left;verticalAlign=top;spacingTop=-4;fontFamily=Verdana;" vertex="1" parent="G0jVgzEL40vaOQWalnAc-17">
          <mxGeometry x="125.5" y="780" width="70" height="20" as="geometry"/>
        </mxCell>
        <mxCell id="G0jVgzEL40vaOQWalnAc-74" value="GPIO" style="endArrow=open;strokeColor=#FF0000;endFill=1;rounded=0;fontFamily=Verdana;exitX=0;exitY=0.445;exitDx=0;exitDy=0;exitPerimeter=0;" edge="1" parent="G0jVgzEL40vaOQWalnAc-17">
          <mxGeometry x="-0.0615" relative="1" as="geometry">
            <mxPoint x="329" y="445.25" as="sourcePoint"/>
            <mxPoint x="180" y="445" as="targetPoint"/>
            <mxPoint as="offset"/>
            <Array as="points">
              <mxPoint x="260" y="445"/>
            </Array>
          </mxGeometry>
        </mxCell>
        <mxCell id="G0jVgzEL40vaOQWalnAc-78" value="Check Buzzer" style="fontFamily=Verdana;" vertex="1" parent="G0jVgzEL40vaOQWalnAc-17">
          <mxGeometry x="40" y="490" width="140" height="30" as="geometry"/>
        </mxCell>
        <mxCell id="G0jVgzEL40vaOQWalnAc-79" value="" style="edgeStyle=elbowEdgeStyle;elbow=horizontal;verticalAlign=bottom;endArrow=open;endSize=8;strokeColor=#FF0000;endFill=1;rounded=0;fontFamily=Verdana;" edge="1" parent="G0jVgzEL40vaOQWalnAc-17">
          <mxGeometry x="-1375" y="-60" as="geometry">
            <mxPoint x="119.75862068965534" y="490" as="targetPoint"/>
            <mxPoint x="120" y="460" as="sourcePoint"/>
          </mxGeometry>
        </mxCell>
        <mxCell id="G0jVgzEL40vaOQWalnAc-84" value="" style="edgeStyle=elbowEdgeStyle;elbow=horizontal;verticalAlign=bottom;endArrow=open;endSize=8;strokeColor=#FF0000;endFill=1;rounded=0;fontFamily=Verdana;exitX=0.577;exitY=1.028;exitDx=0;exitDy=0;exitPerimeter=0;" edge="1" parent="G0jVgzEL40vaOQWalnAc-17" source="G0jVgzEL40vaOQWalnAc-78">
          <mxGeometry x="-1094.5" y="10" as="geometry">
            <mxPoint x="120" y="570" as="targetPoint"/>
            <mxPoint x="120.5" y="530.0000000000001" as="sourcePoint"/>
          </mxGeometry>
        </mxCell>
        <mxCell id="G0jVgzEL40vaOQWalnAc-66" value="DUT" style="swimlane;whiteSpace=wrap;fontFamily=Verdana;" vertex="1" parent="1">
          <mxGeometry x="720" y="120" width="280" height="960" as="geometry"/>
        </mxCell>
        <mxCell id="G0jVgzEL40vaOQWalnAc-67" value="POWER SWITCH" style="rounded=0;whiteSpace=wrap;html=1;fontFamily=Verdana;" vertex="1" parent="G0jVgzEL40vaOQWalnAc-66">
          <mxGeometry x="50" y="60" width="120" height="780" as="geometry"/>
        </mxCell>
        <mxCell id="G0jVgzEL40vaOQWalnAc-68" value="DUT READY?" style="endArrow=open;strokeColor=#FF0000;endFill=1;rounded=0;fontFamily=Verdana;entryX=1;entryY=0.5;entryDx=0;entryDy=0;" edge="1" parent="G0jVgzEL40vaOQWalnAc-66" target="G0jVgzEL40vaOQWalnAc-32">
          <mxGeometry relative="1" as="geometry">
            <mxPoint x="50" y="80" as="sourcePoint"/>
            <mxPoint x="-50" y="79.5" as="targetPoint"/>
            <Array as="points">
              <mxPoint x="50" y="80"/>
              <mxPoint x="20" y="80"/>
            </Array>
          </mxGeometry>
        </mxCell>
        <mxCell id="G0jVgzEL40vaOQWalnAc-69" value="" style="endArrow=open;strokeColor=#FF0000;endFill=1;rounded=0;entryX=0;entryY=0.5;entryDx=0;entryDy=0;exitX=1;exitY=0.5;exitDx=0;exitDy=0;fontFamily=Verdana;" edge="1" parent="1" source="G0jVgzEL40vaOQWalnAc-4" target="G0jVgzEL40vaOQWalnAc-32">
          <mxGeometry relative="1" as="geometry">
            <mxPoint x="330.5" y="244.5" as="sourcePoint"/>
            <mxPoint x="560" y="140" as="targetPoint"/>
          </mxGeometry>
        </mxCell>
      </root>
    </mxGraphModel>
  </diagram>
</mxfile>
